<svg width="31" height="30" viewBox="0 0 31 30" fill="none" xmlns="http://www.w3.org/2000/svg">
<path d="M18.8066 6.6C18.8066 3 15.8066 0 12.0566 0C8.30664 0 5.30664 3 5.30664 6.6C5.30664 10.2 8.30664 13.2 12.0566 13.2C15.8066 13.2 18.8066 10.2 18.8066 6.6ZM8.30664 6.6C8.30664 4.65 9.95664 3 12.0566 3C14.1566 3 15.8066 4.65 15.8066 6.6C15.8066 8.55 14.1566 10.2 12.0566 10.2C9.95664 10.2 8.30664 8.55 8.30664 6.6Z" fill="white"/>
<path d="M0.956744 21.15L0.206744 24C-0.243256 25.35 0.056744 26.85 0.956744 28.05C1.85674 29.1 3.05674 29.7 4.55674 29.7H19.5567C20.9067 29.7 22.2567 29.1 23.0067 27.9C23.9067 26.7 24.2067 25.2 23.7567 23.85L23.0067 21C22.1067 17.25 18.8067 14.7 15.0567 14.7H9.05674C5.30674 14.7 2.00674 17.25 0.956744 21.15ZM3.05674 24.75L3.80674 21.9C4.55674 19.35 6.65674 17.7 9.05674 17.7H15.0567C17.4567 17.7 19.5567 19.35 20.3067 21.9L21.0567 24.75C21.2067 25.2 21.0567 25.8 20.7567 26.25C20.6067 26.4 20.1567 26.7 19.5567 26.7H4.55674C3.95674 26.7 3.65674 26.4 3.50674 26.1C3.05674 25.8 2.90674 25.2 3.05674 24.75Z" fill="white"/>
<path d="M30.2054 11.086H27.0734V14.29H24.1574V11.086H21.0254V8.33199H24.1574V5.10999H27.0734V8.33199H30.2054V11.086Z" fill="white"/>
</svg>
