<svg width="80" height="80" viewBox="0 0 80 80" fill="none" xmlns="http://www.w3.org/2000/svg">
<path d="M75.531 35.7434C76.2483 41.5171 75.5406 47.3784 73.4696 52.8149C71.3985 58.2514 68.0274 63.0975 63.6507 66.9296C59.2741 70.7617 54.0253 73.4631 48.3632 74.7976C42.701 76.1322 36.798 76.0592 31.1702 74.585C25.5424 73.1109 20.3611 70.2805 16.0793 66.3414C11.7975 62.4022 8.54565 57.4742 6.60798 51.9881C4.6703 46.5021 4.10582 40.625 4.96388 34.8709C5.82194 29.1167 8.07643 23.6605 11.5302 18.9794M71.0396 22.3371C68.7009 18.2862 65.5872 14.7356 61.8766 11.8879C58.1659 9.04024 53.9308 6.9513 49.4132 5.74036C44.8955 4.52942 40.1837 4.2202 35.5469 4.83036C30.91 5.44051 26.4388 6.95809 22.3887 9.29645L40.1982 40.1434L71.0396 22.3371Z" stroke="#053B50" stroke-opacity="0.4" stroke-width="7.24254" stroke-linecap="round" stroke-linejoin="round"/>
</svg>
