<svg width="48" height="50" viewBox="0 0 48 50" fill="none" xmlns="http://www.w3.org/2000/svg">
<path d="M4.77579 25L0 16.66L4.77579 8.32996H14.3274L19.1131 16.66L14.3274 25H4.77579Z" fill="#004F88"/>
<path d="M19.1125 16.67L14.3367 8.33L19.1125 0H28.664L33.4398 8.33L28.664 16.67H19.1125Z" fill="#192045"/>
<path d="M33.4503 25L28.6646 16.67L33.4503 8.32996H43.0018L47.7776 16.67L43.0018 25H33.4503Z" fill="#008AEE"/>
<path d="M4.93521 41.67L0.159424 33.33L4.93521 25H14.4967L19.2725 33.33L14.4967 41.67H4.93521Z" fill="#008AEE"/>
<path d="M19.2721 50L14.4963 41.67L19.2721 33.33H28.8237L33.5995 41.67L28.8237 50H19.2721Z" fill="#3B4A9C"/>
<path d="M33.4403 41.67L28.6646 33.33L33.4403 25H42.9919L47.7677 33.33L42.9919 41.67H33.4403Z" fill="#004F88"/>
</svg>
