<svg width="47" height="50" viewBox="0 0 47 50" fill="none" xmlns="http://www.w3.org/2000/svg">
<path d="M23.3328 22.5C19.999 22.5 16.8211 22.9999 13.9507 24.2499C15.6437 27.4999 19.2002 30 23.3328 30C27.4655 30 31.0212 27.4999 32.7155 24.2499C29.8438 22.9999 26.6666 22.5 23.3328 22.5Z" fill="#D6EDFD"/>
<path d="M13.9505 26.7499C6.41724 29.9999 0.954453 36.75 0 45C0 47.75 2.17441 50 5.05813 50H41.6072C44.492 50 46.6667 47.75 46.6667 45C45.7112 36.75 40.2471 29.9999 32.7154 26.7499C31.021 29.9999 27.4653 32.5 23.3327 32.5C19.2 32.5 15.6435 29.9999 13.9505 26.7499Z" fill="#192045"/>
<path d="M13.9505 24.2499C6.41724 27.4999 0.954453 34.25 0 42.5C0 45.25 2.17441 47.5 5.05813 47.5H41.6072C44.492 47.5 46.6667 45.25 46.6667 42.5C45.7112 34.25 40.2471 27.4999 32.7154 24.2499C31.021 27.4999 27.4653 30 23.3327 30C19.2 30 15.6435 27.4999 13.9505 24.2499Z" fill="#008AEE"/>
<path d="M23.3328 22.5C20.3383 22.5 17.4818 23.08 14.8481 24.0625C17.3035 25.6025 20.1921 26.5625 23.3328 26.5625C26.4812 26.5625 29.3581 25.61 31.8174 24.0625C29.1832 23.08 26.3272 22.5 23.3328 22.5Z" fill="#D6EDFD"/>
<path d="M36.3865 12.5C36.3865 15.8152 35.0113 18.9946 32.5633 21.3388C30.1154 23.683 26.7952 25 23.3333 25C19.8713 25 16.5512 23.683 14.1032 21.3388C11.6553 18.9946 10.28 15.8152 10.28 12.5C10.28 9.18479 11.6553 6.00537 14.1032 3.66117C16.5512 1.31696 19.8713 0 23.3333 0C26.7952 0 30.1154 1.31696 32.5633 3.66117C35.0113 6.00537 36.3865 9.18479 36.3865 12.5Z" fill="#008AEE"/>
<path d="M13.951 24.2499C13.1229 24.7499 12.36 24.9999 11.5852 25.4999C13.7137 29.4999 18.2189 32.5 23.3331 32.5C28.4474 32.5 32.9534 29.4999 35.0811 25.4999C34.3057 24.9999 33.5434 24.7499 32.7158 24.2499C31.0215 27.4999 27.4658 30 23.3331 30C19.2005 30 15.644 27.4999 13.951 24.2499Z" fill="#192045"/>
</svg>
