<svg width="21" height="21" viewBox="0 0 21 21" fill="none" xmlns="http://www.w3.org/2000/svg">
<path d="M7.57692 15.25H1.54808C1.40272 15.25 1.26331 15.1874 1.16053 15.0761C1.05774 14.9647 1 14.8137 1 14.6562V8.125C1 6.23533 1.69292 4.42306 2.92634 3.08686C4.15975 1.75067 5.83261 1 7.57692 1C9.32123 1 10.9941 1.75067 12.2275 3.08686C13.4609 4.42306 14.1538 6.23533 14.1538 8.125C14.1538 10.0147 13.4609 11.8269 12.2275 13.1631C10.9941 14.4993 9.32123 15.25 7.57692 15.25Z" stroke="#008AEE" stroke-width="1.44471" stroke-linecap="round" stroke-linejoin="round"/>
<path d="M7.2207 15.25C7.67415 16.6394 8.51414 17.8424 9.62496 18.6931C10.7358 19.5438 12.0628 20.0004 13.4231 20H19.4519C19.5973 20 19.7367 19.9375 19.8395 19.8261C19.9423 19.7148 20 19.5637 20 19.4063V12.875C20.0024 11.0514 19.3583 9.29634 18.2007 7.9723C17.0431 6.64826 15.4604 5.8563 13.7794 5.75992" stroke="#008AEE" stroke-width="1.44471" stroke-linecap="round" stroke-linejoin="round"/>
<rect x="4.42004" y="7.45999" width="0.76" height="0.76" fill="#AF2222" stroke="#008AEE" stroke-width="0.76"/>
<rect x="7.46008" y="7.45999" width="0.76" height="0.76" fill="#AF2222" stroke="#008AEE" stroke-width="0.76"/>
<rect x="10.5001" y="7.45999" width="0.76" height="0.76" fill="#AF2222" stroke="#008AEE" stroke-width="0.76"/>
</svg>
