<svg width="110" height="111" viewBox="0 0 110 111" fill="none" xmlns="http://www.w3.org/2000/svg">
<path d="M94.882 72.4935C91.3573 73.438 81.9923 75.9473 78.6006 76.8561L77.2094 71.6638C84.3862 65.2165 87.8373 55.5061 85.3186 46.1062L84.598 43.417L86.9239 42.7938C90.7714 41.7628 93.1224 38.016 92.1647 34.4416C91.2069 30.8671 87.2975 28.7977 83.45 29.8287L83.1474 29.9098C82.8458 26.6307 80.0595 24.0173 76.4877 23.809C71.1098 14.4941 59.4685 9.95528 48.1921 12.9768C36.8184 16.0244 29.0092 25.8483 29.1043 36.6836C26.1985 38.5758 25.032 42.133 26.3795 45.1207L25.3023 45.4093C21.4548 46.4402 19.1038 50.187 20.0616 53.7615C21.0194 57.336 24.9288 59.4053 28.7763 58.3744L31.1022 57.7511L31.8228 60.4403C34.3415 69.8402 42.1855 76.5244 51.6244 78.5193L53.0157 83.7116C49.6201 84.6214 40.2267 87.1384 36.7343 88.0741C26.4743 90.8233 20.205 100.815 22.7591 110.347L29.1281 134.116C29.4478 135.309 30.7484 135.998 32.033 135.654C38.3894 133.95 118.219 112.56 122.743 111.348C124.028 111.004 124.81 109.757 124.49 108.564L118.121 84.7945C115.567 75.2626 105.142 69.7444 94.882 72.4935ZM56.0286 87.5362L67.1161 88.7834C67.7679 88.8566 68.4177 88.673 68.9255 88.2986L77.904 81.6747L82.0845 80.5546L84.4005 89.1979L54.1638 97.2999L51.8478 88.6565L56.0286 87.5362ZM93.7041 86.705L89.0523 87.9515L86.7363 79.3081L91.3882 78.0617L93.7041 86.705ZM32.0664 45.3362C32.0218 45.2627 32.2422 45.623 30.9373 43.4929C30.2007 42.2901 30.77 40.7352 32.1275 40.1364C33.48 39.6519 50.4728 31.0314 74.618 28.4093L75.5234 28.3109C77.2789 28.1199 78.6753 29.5524 78.3269 31.1808L77.9106 33.1261C61.9765 34.6102 46.5573 38.7175 32.0664 45.3362ZM87.5128 35.688C87.8321 36.8795 87.0484 38.1284 85.7659 38.4721L83.44 39.0953L82.3547 35.0446L82.4204 34.7365L84.6079 34.1504C85.8904 33.8067 87.1936 34.4965 87.5128 35.688ZM49.3501 17.2985C57.7443 15.0493 66.3889 17.9726 71.1104 24.3183C53.5573 26.6269 40.2241 31.7573 33.9949 34.423C34.8366 26.4938 40.8703 19.5706 49.3501 17.2985ZM27.6183 54.0527C26.3358 54.3963 25.0327 53.7065 24.7134 52.5151C24.3942 51.3236 25.1778 50.0746 26.4603 49.731L28.7862 49.1078L29.9442 53.4295L27.6183 54.0527ZM36.4746 59.1939L33.8627 49.4461C47.8318 43.0429 62.6974 39.0655 78.0584 37.618L80.6668 47.3526C83.6997 58.6718 76.255 70.5366 64.0712 73.8013C51.8874 77.0659 39.5076 70.513 36.4746 59.1939ZM73.0542 74.7636L74.1438 78.8301L66.8587 84.2047L57.8624 83.1927L56.7728 79.1262C62.4755 79.2821 68.1927 77.7506 73.0542 74.7636ZM47.196 89.9029L49.5119 98.5463L44.8601 99.7928L42.5442 91.1494L47.196 89.9029ZM27.4109 109.1C25.4953 101.951 30.1973 94.4577 37.8923 92.3958L40.3076 101.41C37.8389 103.027 36.5387 105.951 37.2935 108.768L42.5045 128.216L33.2009 130.709L27.4109 109.1ZM60.8791 123.292L57.9263 112.272L90.4889 103.547L93.4418 114.567L60.8791 123.292ZM119.259 107.649L109.956 110.142L104.745 90.6947C103.99 87.8776 101.402 85.9953 98.4552 85.829L96.04 76.8152C103.735 74.7533 111.554 78.892 113.469 86.0409L119.259 107.649Z" fill="#053B50" fill-opacity="0.4"/>
<path d="M52.1759 53.5971L51.5969 51.4363C51.2771 50.2428 49.9766 49.5544 48.692 49.8986C47.4074 50.2428 46.6253 51.4893 46.9451 52.6827L47.5241 54.8436C47.8439 56.037 49.1444 56.7254 50.429 56.3812C51.7136 56.037 52.4957 54.7905 52.1759 53.5971Z" fill="#053B50" fill-opacity="0.4"/>
<path d="M66.7105 52.0186C67.9951 51.6744 68.7772 50.4279 68.4574 49.2345L67.8784 47.0737C67.5586 45.8802 66.2581 45.1918 64.9735 45.536C63.6889 45.8802 62.9068 47.1267 63.2266 48.3201L63.8056 50.4809C64.1254 51.6744 65.4259 52.3628 66.7105 52.0186Z" fill="#053B50" fill-opacity="0.4"/>
<path d="M66.1938 57.4674C65.0595 56.8671 63.5867 57.2618 62.9043 58.3488C61.6589 60.3336 58.9609 61.0565 56.8902 59.9603C55.7559 59.36 54.2831 59.7547 53.6007 60.8417C52.9185 61.9289 53.2851 63.2971 54.4195 63.8978C58.7559 66.1927 64.4044 64.6796 67.0127 60.5235C67.695 59.436 67.3284 58.0677 66.1938 57.4674Z" fill="#053B50" fill-opacity="0.4"/>
</svg>
