<svg width="127" height="80" viewBox="0 0 127 80" fill="none" xmlns="http://www.w3.org/2000/svg">
<path d="M0.338553 42.3648L47.213 0.813393L109.929 11.8521L63.0199 57.1222L0.338553 42.3648Z" fill="#053B50" fill-opacity="0.33"/>
<path d="M108.96 14.1066C108.716 13.2228 107.801 12.7043 106.916 12.9485C106.032 13.1927 105.512 14.107 105.756 14.9908L110.921 33.701C111.164 34.5848 112.079 35.1033 112.964 34.8592C113.849 34.615 114.368 33.7006 114.124 32.8169L108.96 14.1066Z" fill="#053B50" fill-opacity="0.33"/>
<path d="M115.438 43.5818C118.126 42.8399 119.704 40.0616 118.963 37.3763C118.221 34.691 115.442 33.1155 112.754 33.8574C110.066 34.5993 108.488 37.3775 109.229 40.0629C109.97 42.7482 112.75 44.3236 115.438 43.5818Z" fill="#053B50" fill-opacity="0.33"/>
<path d="M113.663 48.443C114.693 48.8468 115.826 48.9059 116.892 48.6116C117.959 48.3173 118.901 47.6854 119.578 46.8107C121.894 54.5629 124.21 62.3135 126.526 70.0624L119.133 72.1029C117.31 64.2163 115.487 56.3297 113.663 48.443Z" fill="#053B50" fill-opacity="0.33"/>
<path d="M29.7881 54.902L63.9972 62.9594L89.6688 38.3744L94.4253 55.6075C93.5349 57.6469 86.4608 73.1115 68.5492 78.1162C50.4897 83.1617 36.3284 73.4099 34.5445 72.1351L29.7881 54.902Z" fill="#053B50" fill-opacity="0.33"/>
</svg>
