<svg width="120" height="75" viewBox="0 0 120 75" fill="none" xmlns="http://www.w3.org/2000/svg">
<path d="M60.0195 43.0643C67.9357 43.0643 73.6646 32.2456 73.6646 24.9366C73.6646 17.4349 67.5292 11.3408 60.0195 11.3408C52.4904 11.3408 46.3744 17.4349 46.3744 24.9366C46.3744 32.2456 52.1033 43.0643 60.0195 43.0643ZM60.0195 15.1978C65.4002 15.1978 69.7937 19.5755 69.7937 24.9366C69.7937 30.9149 64.8582 39.2074 60.0195 39.2074C55.1614 39.2074 50.2453 30.9149 50.2453 24.9366C50.2453 19.5755 54.6195 15.1978 60.0195 15.1978Z" fill="#053B50" fill-opacity="0.4"/>
<path d="M120 44.2407C120 37.6067 114.6 32.2263 107.923 32.2263H104.013L97.4709 44.665C97.4323 44.7614 97.3162 44.7614 97.2774 44.665L90.7355 32.2263H86.8258C80.1677 32.2263 74.7871 37.5875 74.7678 44.2214C73.4516 43.7972 72.0388 43.5658 70.5678 43.5658H65.4775L60 53.9603L54.5419 43.5658H49.4516C48 43.5658 46.5871 43.7972 45.2516 44.2214C45.2323 37.5875 39.8323 32.2263 33.1742 32.2263H29.2645L22.7226 44.665C22.6839 44.7614 22.5678 44.7614 22.5291 44.665L15.9871 32.2263H12.0774C5.40008 32.2263 0 37.6067 0 44.2407L0 59.8036H35.4581V75H84.5807V59.8036H120V44.2407ZM80.7097 71.143H39.329V57.5086C39.329 51.8579 44.0235 47.4227 49.4516 47.4227H52.2001C52.3003 47.6157 59.1311 60.7619 58.7033 59.9386L61.4129 59.8808C61.5123 59.6874 68.2438 46.5976 67.8194 47.4227H70.5678C76.1194 47.4227 80.7097 51.9606 80.7097 57.5086V71.143Z" fill="#053B50" fill-opacity="0.4"/>
<path d="M108.094 11.6658C108.094 14.6593 106.861 18.5242 104.828 21.6389C102.772 24.7889 100.107 26.873 97.3864 26.873C94.6655 26.873 92.0007 24.7889 89.9449 21.6389C87.9122 18.5241 86.6783 14.6592 86.6783 11.6656C86.6783 5.77863 91.4691 1 97.3864 1C103.304 1 108.094 5.77884 108.094 11.6658Z" stroke="#053B50" stroke-opacity="0.4" stroke-width="2"/>
<path d="M33.34 11.6658C33.34 14.6593 32.1061 18.5242 30.0734 21.6389C28.0176 24.7889 25.3528 26.873 22.6319 26.873C19.9104 26.873 17.2456 24.7878 15.1899 21.637C13.1573 18.5215 11.9238 14.6565 11.9238 11.6656C11.9238 5.77845 16.7148 1 22.6319 1C28.6423 1 33.34 5.91338 33.34 11.6658Z" stroke="#053B50" stroke-opacity="0.4" stroke-width="2"/>
</svg>
